# xmcd
#
# Track frame offsets: 
#        150
#        10473
#        23248
#        34933
#        45638
#        60184
#        69390
#        82421
#        91539
#        101767
#        112225
#        122865
#        134441
#        144299
#        157054
#        168542
#        178611
#        190163
#        201333
#        214591
#        225290
#        236528
#        245759
#        256234
#        268760
#
# Disc length: 3755 seconds
#
# Revision: 0
# Processed by: cddbd v1.5.2PL0 Copyright (c) Steve Scherf et al.
# Submitted via: ExactAudioCopyFreeDBPlugin 1.0
#
DISCID=660ea919
DTITLE=Various Artist - Louisiana Swamp Blues [CD1]
DYEAR=2014
DGENRE=Blues
TTITLE0=Cookie and The Cupcakes - Married Life
TTITLE1=Leroy Washington - My True Life
TTITLE2=Charles Sheffield - Ooh! Wee Baby! Ooh! Wee
TTITLE3=Guitar Jr. - Family Rules
TTITLE4=Clarence Garlow - Train Came Down The Track
TTITLE5=Hop Wilson - Chicken Stuff
TTITLE6=Blue Charlie - Don't Bring No Friend
TTITLE7=Boogie Jake - Early Morning Blues
TTITLE8=Boozoo Davis - Paper In My Shoe
TTITLE9=Shelton Dunaway - I Had The Blues
TTITLE10=Guitar Gable - Congo Mombo
TTITLE11=Mr. Calhoun - They Call Me Mr. Calhoun
TTITLE12=Joe Hudson - Hoo-Wee Pretty Baby
TTITLE13=Juke Boy Bonner - Can't Hardly Keep From Cryin'
TTITLE14=Cleveland Crotchet - Sugar Bee
TTITLE15=King Charles - Bop Cat Stomp
TTITLE16=Lonesome Sundown - I Stood By
TTITLE17=Tal Miller - Scorched (By The Torch Of Love)
TTITLE18=Charles Sheffield - Isabella
TTITLE19=Classie Ballou - Crazy Mambo
TTITLE20=Ivory Lee Semien - Fuss Too Much
TTITLE21=Big Walter Price - San Antonio
TTITLE22=Jimmy Dotson - I Need Your Love
TTITLE23=Boozoo Davis - Gonna Boogie
TTITLE24=Boogie Ramblers - Bayou Shuffle
EXTD=
EXTT0=
EXTT1=
EXTT2=
EXTT3=
EXTT4=
EXTT5=
EXTT6=
EXTT7=
EXTT8=
EXTT9=
EXTT10=
EXTT11=
EXTT12=
EXTT13=
EXTT14=
EXTT15=
EXTT16=
EXTT17=
EXTT18=
EXTT19=
EXTT20=
EXTT21=
EXTT22=
EXTT23=
EXTT24=
PLAYORDER=
